HIERARCHY
ROOT hip
{
  OFFSET 0 90.174 2.4664
  CHANNELS 6 Xposition Yposition Zposition Zrotation Xrotation Yrotation
  JOINT abdomen
  {
    OFFSET 0 -1.186 -1.5018
    CHANNELS 6 Xposition Yposition Zposition Zrotation Xrotation Yrotation
    JOINT abdomen2
    {
      OFFSET 0 9.964 0.2134
      CHANNELS 6 Xposition Yposition Zposition Zrotation Xrotation Yrotation
      JOINT chest
      {
        OFFSET 0 13.134 -3.2573
        CHANNELS 6 Xposition Yposition Zposition Zrotation Xrotation Yrotation
        JOINT neck
        {
          OFFSET 0 20.686 -1.6905
          CHANNELS 6 Xposition Yposition Zposition Zrotation Xrotation Yrotation
          JOINT head
          {
            OFFSET 0 7.238 -0.1237
            CHANNELS 6 Xposition Yposition Zposition Zrotation Xrotation Yrotation
            End Site
            {
              OFFSET 0 0 0
            }
          }
        }
        JOINT lCollar
        {
          OFFSET 1.7069 20.075 5.0056
          CHANNELS 6 Xposition Yposition Zposition Zrotation Xrotation Yrotation
          JOINT lShldr
          {
            OFFSET 13.6458 -0.047 -4.849
            CHANNELS 6 Xposition Yposition Zposition Zrotation Xrotation Yrotation
            JOINT lForeArm
            {
              OFFSET 28.3255 -0.9759 2.2888
              CHANNELS 6 Xposition Yposition Zposition Zrotation Xrotation Yrotation
              JOINT lHand
              {
                OFFSET 22.1583 -0.53 10.8316
                CHANNELS 6 Xposition Yposition Zposition Zrotation Xrotation Yrotation
                JOINT lThumb1
                {
                  OFFSET 0.786 0.112 2.5817
                  CHANNELS 6 Xposition Yposition Zposition Zrotation Xrotation Yrotation
                  JOINT lThumb2
                  {
                    OFFSET 0.3601 -0.878 4.2331
                    CHANNELS 6 Xposition Yposition Zposition Zrotation Xrotation Yrotation
                    JOINT lThumb2_End
                    {
                      OFFSET 1.8127 -1.216 2.2227
                      CHANNELS 6 Xposition Yposition Zposition Zrotation Xrotation Yrotation
                      End Site
                      {
                        OFFSET 0.0181 -0.0122 0.0222
                      }
                    }
                  }
                }
                JOINT lCarpal1
                {
                  OFFSET 0.9571 1.114 1.7695
                  CHANNELS 6 Xposition Yposition Zposition Zrotation Xrotation Yrotation
                  JOINT lIndex1
                  {
                    OFFSET 4.1246 0.487 4.1451
                    CHANNELS 6 Xposition Yposition Zposition Zrotation Xrotation Yrotation
                    JOINT lIndex2
                    {
                      OFFSET 3.4052 -1.454 2.7682
                      CHANNELS 6 Xposition Yposition Zposition Zrotation Xrotation Yrotation
                      JOINT lIndex2_End
                      {
                        OFFSET 1.4531 -1.795 1.2713
                        CHANNELS 6 Xposition Yposition Zposition Zrotation Xrotation Yrotation
                        End Site
                        {
                          OFFSET 0.0145 -0.0179 0.0127
                        }
                      }
                    }
                  }
                  JOINT lMid1
                  {
                    OFFSET 5.6954 0.21 2.1184
                    CHANNELS 6 Xposition Yposition Zposition Zrotation Xrotation Yrotation
                    JOINT lMid2
                    {
                      OFFSET 3.9766 -1.54 2.3863
                      CHANNELS 6 Xposition Yposition Zposition Zrotation Xrotation Yrotation
                      JOINT lMid2_End
                      {
                        OFFSET 1.4042 -1.926 1.125
                        CHANNELS 6 Xposition Yposition Zposition Zrotation Xrotation Yrotation
                        End Site
                        {
                          OFFSET 0.014 -0.0193 0.0113
                        }
                      }
                    }
                  }
                }
                JOINT lCarpal2
                {
                  OFFSET 2.0956 0.66 -0.3894
                  CHANNELS 6 Xposition Yposition Zposition Zrotation Xrotation Yrotation
                  JOINT lRing1
                  {
                    OFFSET 5.0395 -0.09 2.4971
                    CHANNELS 6 Xposition Yposition Zposition Zrotation Xrotation Yrotation
                    JOINT lRing2
                    {
                      OFFSET 3.7921 -1.552 1.4806
                      CHANNELS 6 Xposition Yposition Zposition Zrotation Xrotation Yrotation
                      JOINT lRing2_End
                      {
                        OFFSET 1.4655 -1.808 0.9609
                        CHANNELS 6 Xposition Yposition Zposition Zrotation Xrotation Yrotation
                        End Site
                        {
                          OFFSET 0.0147 -0.0181 0.0096
                        }
                      }
                    }
                  }
                  JOINT lPinky1
                  {
                    OFFSET 4.9141 -1.269 0.3591
                    CHANNELS 6 Xposition Yposition Zposition Zrotation Xrotation Yrotation
                    JOINT lPinky2
                    {
                      OFFSET 3.1477 -1.685 0.8462
                      CHANNELS 6 Xposition Yposition Zposition Zrotation Xrotation Yrotation
                      JOINT lPinky2_End
                      {
                        OFFSET 0.8055 -1.585 0.7955
                        CHANNELS 6 Xposition Yposition Zposition Zrotation Xrotation Yrotation
                        End Site
                        {
                          OFFSET 0.0081 -0.0158 0.008
                        }
                      }
                    }
                  }
                }
              }
            }
          }
        }
        JOINT rCollar
        {
          OFFSET -1.7069 20.075 5.0056
          CHANNELS 6 Xposition Yposition Zposition Zrotation Xrotation Yrotation
          JOINT rShldr
          {
            OFFSET -13.6458 -0.047 -4.849
            CHANNELS 6 Xposition Yposition Zposition Zrotation Xrotation Yrotation
            JOINT rForeArm
            {
              OFFSET -28.3255 -0.9759 2.2888
              CHANNELS 6 Xposition Yposition Zposition Zrotation Xrotation Yrotation
              JOINT rHand
              {
                OFFSET -22.1583 -0.53 10.8316
                CHANNELS 6 Xposition Yposition Zposition Zrotation Xrotation Yrotation
                JOINT rThumb1
                {
                  OFFSET -0.786 0.112 2.5817
                  CHANNELS 6 Xposition Yposition Zposition Zrotation Xrotation Yrotation
                  JOINT rThumb2
                  {
                    OFFSET -0.3601 -0.878 4.2331
                    CHANNELS 6 Xposition Yposition Zposition Zrotation Xrotation Yrotation
                    JOINT rThumb2_End
                    {
                      OFFSET -1.8127 -1.216 2.2227
                      CHANNELS 6 Xposition Yposition Zposition Zrotation Xrotation Yrotation
                      End Site
                      {
                        OFFSET -0.0181 -0.0122 0.0222
                      }
                    }
                  }
                }
                JOINT rCarpal1
                {
                  OFFSET -0.9571 1.114 1.7695
                  CHANNELS 6 Xposition Yposition Zposition Zrotation Xrotation Yrotation
                  JOINT rIndex1
                  {
                    OFFSET -4.1246 0.487 4.1451
                    CHANNELS 6 Xposition Yposition Zposition Zrotation Xrotation Yrotation
                    JOINT rIndex2
                    {
                      OFFSET -3.4052 -1.454 2.7682
                      CHANNELS 6 Xposition Yposition Zposition Zrotation Xrotation Yrotation
                      JOINT rIndex2_End
                      {
                        OFFSET -1.4531 -1.795 1.2713
                        CHANNELS 6 Xposition Yposition Zposition Zrotation Xrotation Yrotation
                        End Site
                        {
                          OFFSET -0.0145 -0.018 0.0127
                        }
                      }
                    }
                  }
                  JOINT rMid1
                  {
                    OFFSET -5.6954 0.21 2.1184
                    CHANNELS 6 Xposition Yposition Zposition Zrotation Xrotation Yrotation
                    JOINT rMid2
                    {
                      OFFSET -3.9766 -1.54 2.3863
                      CHANNELS 6 Xposition Yposition Zposition Zrotation Xrotation Yrotation
                      JOINT rMid2_End
                      {
                        OFFSET -1.4042 -1.926 1.125
                        CHANNELS 6 Xposition Yposition Zposition Zrotation Xrotation Yrotation
                        End Site
                        {
                          OFFSET -0.014 -0.0193 0.0113
                        }
                      }
                    }
                  }
                }
                JOINT rCarpal2
                {
                  OFFSET -2.0956 0.66 -0.3894
                  CHANNELS 6 Xposition Yposition Zposition Zrotation Xrotation Yrotation
                  JOINT rRing1
                  {
                    OFFSET -5.0395 -0.09 2.4971
                    CHANNELS 6 Xposition Yposition Zposition Zrotation Xrotation Yrotation
                    JOINT rRing2
                    {
                      OFFSET -3.7921 -1.552 1.4806
                      CHANNELS 6 Xposition Yposition Zposition Zrotation Xrotation Yrotation
                      JOINT rRing2_End
                      {
                        OFFSET -1.4655 -1.808 0.9609
                        CHANNELS 6 Xposition Yposition Zposition Zrotation Xrotation Yrotation
                        End Site
                        {
                          OFFSET -0.0147 -0.0181 0.0096
                        }
                      }
                    }
                  }
                  JOINT rPinky1
                  {
                    OFFSET -4.9141 -1.269 0.3592
                    CHANNELS 6 Xposition Yposition Zposition Zrotation Xrotation Yrotation
                    JOINT rPinky2
                    {
                      OFFSET -3.1477 -1.685 0.8462
                      CHANNELS 6 Xposition Yposition Zposition Zrotation Xrotation Yrotation
                      JOINT rPinky2_End
                      {
                        OFFSET -0.8055 -1.585 0.7955
                        CHANNELS 6 Xposition Yposition Zposition Zrotation Xrotation Yrotation
                        End Site
                        {
                          OFFSET -0.0081 -0.0158 0.008
                        }
                      }
                    }
                  }
                }
              }
            }
          }
        }
      }
    }
  }
  JOINT lThigh
  {
    OFFSET 8.367 -8.2066 0.5982
    CHANNELS 6 Xposition Yposition Zposition Zrotation Xrotation Yrotation
    JOINT lShin
    {
      OFFSET 2.1923 -43.463 -0.4932
      CHANNELS 6 Xposition Yposition Zposition Zrotation Xrotation Yrotation
      JOINT lFoot
      {
        OFFSET 0.7333 -45.8593 -2.6451
        CHANNELS 6 Xposition Yposition Zposition Zrotation Xrotation Yrotation
        End Site
        {
          OFFSET 2.6618 -4.2699 12.3931
        }
      }
    }
  }
  JOINT rThigh
  {
    OFFSET -8.367 -8.2066 0.5982
    CHANNELS 6 Xposition Yposition Zposition Zrotation Xrotation Yrotation
    JOINT rShin
    {
      OFFSET -2.1923 -43.463 -0.4931
      CHANNELS 6 Xposition Yposition Zposition Zrotation Xrotation Yrotation
      JOINT rFoot
      {
        OFFSET -0.7333 -45.8593 -2.6451
        CHANNELS 6 Xposition Yposition Zposition Zrotation Xrotation Yrotation
        End Site
        {
          OFFSET -2.6618 -4.2699 12.3931
        }
      }
    }
  }
}
MOTION
Frames:	4
Frame Time:	0.0333333
0 90.174 2.4664 0 0 -0 0 -1.186 -1.5018 0 0 -0 0 9.964 0.2134 0 0 -0 0 13.134 -3.2573 0 0 -0 0 20.686 -1.6905 0 0 -0 0 7.238 -0.1237 0 0 -0 1.7069 20.075 5.0056 0 0 -0 13.6458 -0.047 -4.849 1.66051 0.0835086 5.75766 28.3255 -0.9759 2.2888 -0.0175111 0.895433 15.7816 22.1583 -0.53 10.8316 7.95139e-016 -1.98785e-016 -0 0.786 0.112 2.5817 5.46658e-016 -3.97569e-016 -0 0.3601 -0.878 4.2331 5.96354e-016 0 -0 1.8127 -1.216 2.2227 3.97569e-016 1.98785e-016 9.54166e-015 0.9571 1.114 1.7695 1.49089e-016 -3.97569e-016 -0 4.1246 0.487 4.1451 6.4605e-016 0 3.18055e-015 3.4052 -1.454 2.7682 5.96354e-016 0 3.18055e-015 1.4531 -1.795 1.2713 8.94531e-016 -1.98785e-016 6.36111e-015 5.6954 0.21 2.1184 6.4605e-016 0 3.18055e-015 3.9766 -1.54 2.3863 5.96354e-016 0 3.18055e-015 1.4042 -1.926 1.125 8.94531e-016 -1.98785e-016 6.36111e-015 2.0956 0.66 -0.3894 1.49089e-016 -3.97569e-016 -0 5.0395 -0.09 2.4971 6.4605e-016 0 3.18055e-015 3.7921 -1.552 1.4806 5.96354e-016 0 3.18055e-015 1.4655 -1.808 0.9609 8.94531e-016 -1.98785e-016 6.36111e-015 4.9141 -1.269 0.3591 6.4605e-016 0 3.18055e-015 3.1477 -1.685 0.8462 5.96354e-016 0 3.18055e-015 0.8055 -1.585 0.7955 8.94531e-016 -1.98785e-016 6.36111e-015 -1.7069 20.075 5.0056 0 0 -0 -13.6458 -0.047 -4.849 -1.4496 0.0636048 -5.0245 -28.3255 -0.9759 2.2888 -1.74811 1.20616 -16.8394 -22.1583 -0.53 10.8316 -1.19271e-015 1.98785e-016 -3.18055e-015 -0.786 0.112 2.5817 -3.97569e-016 1.98785e-016 -3.18055e-015 -0.3601 -0.878 4.2331 -2.98177e-016 1.98785e-016 -3.18055e-015 -1.8127 -1.216 2.2227 -2.98177e-016 3.97569e-016 -0 -0.9571 1.114 1.7695 4.96962e-016 0 -6.36111e-015 -4.1246 0.487 4.1451 -9.93923e-017 3.97569e-016 -0 -3.4052 -1.454 2.7682 -8.94531e-016 5.96354e-016 -0 -1.4531 -1.795 1.2713 -3.97569e-016 3.97569e-016 -0 -5.6954 0.21 2.1184 -9.93923e-017 3.97569e-016 -0 -3.9766 -1.54 2.3863 -8.94531e-016 5.96354e-016 -0 -1.4042 -1.926 1.125 -3.97569e-016 3.97569e-016 -0 -2.0956 0.66 -0.3894 4.96962e-016 0 -6.36111e-015 -5.0395 -0.09 2.4971 -9.93923e-017 3.97569e-016 -0 -3.7921 -1.552 1.4806 -8.94531e-016 5.96354e-016 -0 -1.4655 -1.808 0.9609 -3.97569e-016 3.97569e-016 -0 -4.9141 -1.269 0.3592 -9.93923e-017 3.97569e-016 -0 -3.1477 -1.685 0.8462 -8.94531e-016 5.96354e-016 -0 -0.8055 -1.585 0.7955 -3.97569e-016 3.97569e-016 -0 8.367 -8.2066 0.5982 -4.66115 -1.03232 0.120763 2.1923 -43.463 -0.4932 0.00990601 1.55097 0.177175 0.7333 -45.8593 -2.6451 4.65196 -0.54114 -0.255042 -8.367 -8.2066 0.5982 4.66115 -1.03222 -0.120763 -2.1923 -43.463 -0.4931 -0.00990459 1.5509 -0.177176 -0.7333 -45.8593 -2.6451 -4.65196 -0.541171 0.255041 
0.0509554 23.6277 -15.7392 -0 -66.6516 -0 0 -1.186 -1.5018 -0.0419164 4.41974 -0.083911 6.93889e-018 9.964 0.2134 -0.0776663 8.83951 -0.165309 1.38778e-017 13.134 -3.2573 -0.0776662 8.8395 -0.165309 -2.77556e-017 20.686 -1.6905 -3.73018e-006 13.3022 2.01156e-006 -5.55112e-017 7.238 -0.1237 5.35191e-008 6.65559 5.57051e-009 1.7069 20.075 5.0056 -14.7458 -9.6448 -1.09076 13.6458 -0.047 -4.849 -43.4688 3.83163 22.1542 28.3255 -0.9759 2.2888 19.19 14.4654 -19.4625 22.1583 -0.53 10.8316 -0.457944 19.6422 2.01019 0.786 0.112 2.5817 -2.52208e-015 -2.31087e-015 3.18055e-015 0.3601 -0.878 4.2331 4.40221e-007 -1.57872e-006 -4.62221e-007 1.8127 -1.216 2.2227 3.59767e-006 -6.98282e-007 -7.1444e-007 0.9571 1.114 1.7695 -2.52208e-015 -1.76421e-015 3.18055e-015 4.1246 0.487 4.1451 5.46658e-015 -9.44227e-016 1.59028e-014 3.4052 -1.454 2.7682 4.40221e-007 -1.57872e-006 -4.62221e-007 1.4531 -1.795 1.2713 3.59767e-006 -6.98282e-007 -7.1444e-007 5.6954 0.21 2.1184 5.46658e-015 -9.44227e-016 1.59028e-014 3.9766 -1.54 2.3863 4.40221e-007 -1.57872e-006 -4.62221e-007 1.4042 -1.926 1.125 3.59767e-006 -6.98282e-007 -7.1444e-007 2.0956 0.66 -0.3894 -2.52208e-015 -1.76421e-015 3.18055e-015 5.0395 -0.09 2.4971 5.46658e-015 -9.44227e-016 1.59028e-014 3.7921 -1.552 1.4806 4.40221e-007 -1.57872e-006 -4.62221e-007 1.4655 -1.808 0.9609 3.59767e-006 -6.98282e-007 -7.1444e-007 4.9141 -1.269 0.3591 5.46658e-015 -9.44227e-016 1.59028e-014 3.1477 -1.685 0.8462 4.40221e-007 -1.57872e-006 -4.62221e-007 0.8055 -1.585 0.7955 3.59767e-006 -6.98282e-007 -7.1444e-007 -1.7069 20.075 5.0056 14.49 -9.54815 0.746455 -13.6458 -0.047 -4.849 44.0973 3.80407 -21.3889 -28.3255 -0.9759 2.2888 -20.8188 14.015 19.1993 -22.1583 -0.53 10.8316 0.0527536 19.9497 -1.79254 -0.786 0.112 2.5817 -4.19558e-007 -1.58874e-006 4.44443e-007 -0.3601 -0.878 4.2331 -4.19558e-007 -1.58874e-006 4.44443e-007 -1.8127 -1.216 2.2227 -1.85319e-006 1.87531e-007 1.32731e-007 -0.9571 1.114 1.7695 2.98177e-016 7.95139e-016 -0 -4.1246 0.487 4.1451 -4.19558e-007 -1.58874e-006 4.44443e-007 -3.4052 -1.454 2.7682 -4.19558e-007 -1.58874e-006 4.44443e-007 -1.4531 -1.795 1.2713 -1.85319e-006 1.87531e-007 1.32731e-007 -5.6954 0.21 2.1184 -4.19558e-007 -1.58874e-006 4.44443e-007 -3.9766 -1.54 2.3863 -4.19558e-007 -1.58874e-006 4.44443e-007 -1.4042 -1.926 1.125 -1.85319e-006 1.87531e-007 1.32731e-007 -2.0956 0.66 -0.3894 2.98177e-016 7.95139e-016 -0 -5.0395 -0.09 2.4971 -4.19558e-007 -1.58874e-006 4.44443e-007 -3.7921 -1.552 1.4806 -4.19558e-007 -1.58874e-006 4.44443e-007 -1.4655 -1.808 0.9609 -1.85319e-006 1.87531e-007 1.32731e-007 -4.9141 -1.269 0.3592 -4.19558e-007 -1.58874e-006 4.44443e-007 -3.1477 -1.685 0.8462 -4.19558e-007 -1.58874e-006 4.44443e-007 -0.8055 -1.585 0.7955 -1.85319e-006 1.87531e-007 1.32731e-007 8.367 -8.2066 0.5982 9.81909 -28.4944 -6.27639 2.1923 -43.463 -0.4932 -35.3133 2.71609 31.9364 0.7333 -45.8593 -2.6451 10.4406 19.2051 1.84926 -8.367 -8.2066 0.5982 -6.80236 -29.183 7.43858 -2.1923 -43.463 -0.4931 29.6308 13.6223 -42.9584 -0.7333 -45.8593 -2.6451 -10.1928 19.5978 -1.87834 
-0.0116264 -8.14745 -20.0018 -180 -83.2737 -180 0 -1.186 -1.5018 -0.0526596 6.38032 -0.125117 0 9.964 0.2134 -0.0920621 12.7608 -0.246608 0 13.134 -3.2573 -0.0920621 12.7607 -0.246608 1.11022e-016 20.686 -1.6905 7.29389e-006 19.4363 -1.78146e-006 5.55112e-017 7.238 -0.1237 -1.29016e-007 9.70015 -2.3772e-009 1.7069 20.075 5.0056 -21.4974 -13.8265 -1.45315 13.6458 -0.047 -4.849 -64.4238 5.28521 29.5853 28.3255 -0.9759 2.2888 32.9001 14.9203 -35.9196 22.1583 -0.53 10.8316 -0.93307 28.7177 2.25371 0.786 0.112 2.5817 1.76556e-031 -1.59028e-015 6.36111e-015 0.3601 -0.878 4.2331 -1.59028e-015 3.97569e-016 3.18055e-015 1.8127 -1.216 2.2227 3.18055e-015 -3.97569e-016 6.36111e-015 0.9571 1.114 1.7695 -1.59028e-015 2.78299e-015 6.36111e-015 4.1246 0.487 4.1451 -7.95139e-016 1.98785e-015 1.59028e-014 3.4052 -1.454 2.7682 4.77083e-015 1.19271e-015 9.54166e-015 1.4531 -1.795 1.2713 7.94503e-031 -3.57812e-015 1.27222e-014 5.6954 0.21 2.1184 -7.95139e-016 1.98785e-015 1.59028e-014 3.9766 -1.54 2.3863 4.77083e-015 1.19271e-015 9.54166e-015 1.4042 -1.926 1.125 7.94503e-031 -3.57812e-015 1.27222e-014 2.0956 0.66 -0.3894 -1.59028e-015 2.78299e-015 6.36111e-015 5.0395 -0.09 2.4971 -7.95139e-016 1.98785e-015 1.59028e-014 3.7921 -1.552 1.4806 4.77083e-015 1.19271e-015 9.54166e-015 1.4655 -1.808 0.9609 7.94503e-031 -3.57812e-015 1.27222e-014 4.9141 -1.269 0.3591 -7.95139e-016 1.98785e-015 1.59028e-014 3.1477 -1.685 0.8462 4.77083e-015 1.19271e-015 9.54166e-015 0.8055 -1.585 0.7955 7.94503e-031 -3.57812e-015 1.27222e-014 -1.7069 20.075 5.0056 21.0803 -13.6885 0.949287 -13.6458 -0.047 -4.849 65.2428 5.25364 -28.805 -28.3255 -0.9759 2.2888 -34.3552 14.0895 35.8423 -22.1583 -0.53 10.8316 0.338654 29.1692 -1.87991 -0.786 0.112 2.5817 -1.59028e-015 7.95139e-016 6.36111e-015 -0.3601 -0.878 4.2331 -8.72369e-007 -1.41439e-006 2.58805e-007 -1.8127 -1.216 2.2227 -2.20695e-032 3.97569e-016 3.18055e-015 -0.9571 1.114 1.7695 -9.2692e-031 5.56597e-015 9.54166e-015 -4.1246 0.487 4.1451 7.95139e-016 1.19271e-015 9.54166e-015 -3.4052 -1.454 2.7682 -8.72369e-007 -1.41439e-006 2.58805e-007 -1.4531 -1.795 1.2713 -3.97569e-015 0 -0 -5.6954 0.21 2.1184 7.95139e-016 1.19271e-015 9.54166e-015 -3.9766 -1.54 2.3863 -8.72369e-007 -1.41439e-006 2.58805e-007 -1.4042 -1.926 1.125 -3.97569e-015 0 -0 -2.0956 0.66 -0.3894 -9.2692e-031 5.56597e-015 9.54166e-015 -5.0395 -0.09 2.4971 7.95139e-016 1.19271e-015 9.54166e-015 -3.7921 -1.552 1.4806 -8.72369e-007 -1.41439e-006 2.58805e-007 -1.4655 -1.808 0.9609 -3.97569e-015 0 -0 -4.9141 -1.269 0.3592 7.95139e-016 1.19271e-015 9.54166e-015 -3.1477 -1.685 0.8462 -8.72369e-007 -1.41439e-006 2.58805e-007 -0.8055 -1.585 0.7955 -3.97569e-015 0 -0 8.367 -8.2066 0.5982 14.1913 -41.5553 -9.85502 2.1923 -43.463 -0.4932 -51.6748 3.30286 46.208 0.7333 -45.8593 -2.6451 12.1343 28.882 3.23823 -8.367 -8.2066 0.5982 -9.91299 -42.4283 11.8492 -2.1923 -43.463 -0.4931 49.6365 13.7151 -62.963 -0.7333 -45.8593 -2.6451 -12.0007 28.6777 -3.30373 
0.00629612 -1.16923 -19.33 -180 -89.7758 -180 0 -1.186 -1.5018 -0.0503946 5.88212 -0.115945 0 9.964 0.2134 -0.0894621 11.7644 -0.228479 0 13.134 -3.2573 -0.0894618 11.7643 -0.228479 0 20.686 -1.6905 4.49097e-006 18.4021 -1.00527e-006 0 7.238 -0.1237 6.63448e-008 9.13363 3.37336e-008 1.7069 20.075 5.0056 -19.9848 -12.551 -1.03169 13.6458 -0.047 -4.849 -59.7347 4.98126 27.9301 28.3255 -0.9759 2.2888 29.7273 15.2202 -32.3226 22.1583 -0.53 10.8316 -0.731011 26.8597 2.10907 0.786 0.112 2.5817 2.38542e-015 -2.38542e-015 -3.18055e-015 0.3601 -0.878 4.2331 1.19271e-015 4.57205e-015 -3.18055e-015 1.8127 -1.216 2.2227 -2.78299e-015 0 -0 0.9571 1.114 1.7695 7.95139e-016 -1.78906e-015 -3.18055e-015 4.1246 0.487 4.1451 -3.57812e-015 4.77083e-015 -6.36111e-015 3.4052 -1.454 2.7682 7.95139e-016 -7.95139e-015 -0 1.4531 -1.795 1.2713 3.18055e-015 -4.96962e-015 -3.18055e-015 5.6954 0.21 2.1184 -3.57812e-015 4.77083e-015 -6.36111e-015 3.9766 -1.54 2.3863 7.95139e-016 -7.95139e-015 -0 1.4042 -1.926 1.125 3.18055e-015 -4.96962e-015 -3.18055e-015 2.0956 0.66 -0.3894 7.95139e-016 -1.78906e-015 -3.18055e-015 5.0395 -0.09 2.4971 -3.57812e-015 4.77083e-015 -6.36111e-015 3.7921 -1.552 1.4806 7.95139e-016 -7.95139e-015 -0 1.4655 -1.808 0.9609 3.18055e-015 -4.96962e-015 -3.18055e-015 4.9141 -1.269 0.3591 -3.57812e-015 4.77083e-015 -6.36111e-015 3.1477 -1.685 0.8462 7.95139e-016 -7.95139e-015 -0 0.8055 -1.585 0.7955 3.18055e-015 -4.96962e-015 -3.18055e-015 -1.7069 20.075 5.0056 19.5912 -12.4236 0.571971 -13.6458 -0.047 -4.849 60.5113 4.95064 -27.1532 -28.3255 -0.9759 2.2888 -31.2305 14.4746 32.2162 -22.1583 -0.53 10.8316 0.170161 27.2727 -1.75762 -0.786 0.112 2.5817 -2.24231e-006 -6.81288e-007 5.78675e-007 -0.3601 -0.878 4.2331 -1.56102e-006 -2.9236e-006 6.4543e-007 -1.8127 -1.216 2.2227 -7.80512e-007 -1.4618e-006 3.22715e-007 -0.9571 1.114 1.7695 1.59028e-015 1.19271e-015 -6.36111e-015 -4.1246 0.487 4.1451 -2.24231e-006 -6.81288e-007 5.78675e-007 -3.4052 -1.454 2.7682 -1.56102e-006 -2.9236e-006 6.4543e-007 -1.4531 -1.795 1.2713 -7.80512e-007 -1.4618e-006 3.22715e-007 -5.6954 0.21 2.1184 -2.24231e-006 -6.81288e-007 5.78675e-007 -3.9766 -1.54 2.3863 -1.56102e-006 -2.9236e-006 6.4543e-007 -1.4042 -1.926 1.125 -7.80512e-007 -1.4618e-006 3.22715e-007 -2.0956 0.66 -0.3894 1.59028e-015 1.19271e-015 -6.36111e-015 -5.0395 -0.09 2.4971 -2.24231e-006 -6.81288e-007 5.78675e-007 -3.7921 -1.552 1.4806 -1.56102e-006 -2.9236e-006 6.4543e-007 -1.4655 -1.808 0.9609 -7.80512e-007 -1.4618e-006 3.22715e-007 -4.9141 -1.269 0.3592 -2.24231e-006 -6.81288e-007 5.78675e-007 -3.1477 -1.685 0.8462 -1.56102e-006 -2.9236e-006 6.4543e-007 -0.8055 -1.585 0.7955 -7.80512e-007 -1.4618e-006 3.22715e-007 8.367 -8.2066 0.5982 13.4128 -38.6596 -8.94891 2.1923 -43.463 -0.4932 -48.0722 3.40299 43.0396 0.7333 -45.8593 -2.6451 11.8339 26.6354 2.89319 -8.367 -8.2066 0.5982 -9.43734 -39.4829 10.7423 -2.1923 -43.463 -0.4931 45.3551 14.4391 -58.6641 -0.7333 -45.8593 -2.6451 -11.6255 26.5773 -2.96337 
